<svg xmlns="http://www.w3.org/2000/svg" width="480" height="240" viewBox="0 0 480 240" font-family="'Hiragino Sans','Noto Sans JP','Yu Gothic','Segoe UI',sans-serif">
<defs><marker id="aR" viewBox="0 0 10 10" refX="8" refY="5" markerWidth="7" markerHeight="7" orient="auto-start-reverse"><path d="M0 1 L9 5 L0 9 z" fill="#475569"/></marker><marker id="aRsub" viewBox="0 0 10 10" refX="8" refY="5" markerWidth="7" markerHeight="7" orient="auto-start-reverse"><path d="M0 1 L9 5 L0 9 z" fill="#94a3b8"/></marker></defs>
<rect x="0" y="0" width="480" height="240" fill="#ffffff"/>
<svg x="198.0" y="78.0" width="84" height="84" viewBox="0 0 36 36"><path fill="#269" d="M0 29c0 2.209 1.791 4 4 4h24c2.209 0 4-1.791 4-4V12c0-2.209-1.791-4-4-4h-9c-3.562 0-3-5-8.438-5H4C1.791 3 0 4.791 0 7v22z"/><path fill="#55ACEE" d="M30 10h-6.562C18 10 18.562 15 15 15H6c-2.209 0-4 1.791-4 4v10c0 .553-.448 1-1 1s-1-.447-1-1c0 2.209 1.791 4 4 4h26c2.209 0 4-1.791 4-4V14c0-2.209-1.791-4-4-4z"/></svg>
</svg>
