<svg xmlns="http://www.w3.org/2000/svg" width="640" height="360" viewBox="0 0 640 360" font-family="'Hiragino Sans','Noto Sans JP','Yu Gothic','Segoe UI',sans-serif">
<defs><marker id="aR" viewBox="0 0 10 10" refX="8" refY="5" markerWidth="7" markerHeight="7" orient="auto-start-reverse"><path d="M0 1 L9 5 L0 9 z" fill="#475569"/></marker><marker id="aRsub" viewBox="0 0 10 10" refX="8" refY="5" markerWidth="7" markerHeight="7" orient="auto-start-reverse"><path d="M0 1 L9 5 L0 9 z" fill="#94a3b8"/></marker></defs>
<rect x="0" y="0" width="640" height="360" fill="#ffffff"/>
<text x="320" y="46" text-anchor="middle" font-size="26" fill="#0f172a" font-weight="700">y は、上か下か</text>
<rect x="40" y="82" width="240" height="200" rx="16" fill="#f1f5f9" stroke="#94a3b8" stroke-width="3.5"/>
<line x1="80" y1="82" x2="80" y2="282" stroke="#cbd5e1" stroke-width="1"/>
<line x1="120" y1="82" x2="120" y2="282" stroke="#cbd5e1" stroke-width="1"/>
<line x1="160" y1="82" x2="160" y2="282" stroke="#cbd5e1" stroke-width="1"/>
<line x1="200" y1="82" x2="200" y2="282" stroke="#cbd5e1" stroke-width="1"/>
<line x1="240" y1="82" x2="240" y2="282" stroke="#cbd5e1" stroke-width="1"/>
<line x1="40" y1="122" x2="280" y2="122" stroke="#cbd5e1" stroke-width="1"/>
<line x1="40" y1="162" x2="280" y2="162" stroke="#cbd5e1" stroke-width="1"/>
<line x1="40" y1="202" x2="280" y2="202" stroke="#cbd5e1" stroke-width="1"/>
<line x1="40" y1="242" x2="280" y2="242" stroke="#cbd5e1" stroke-width="1"/>
<line x1="56" y1="182.0" x2="264" y2="182.0" stroke="#94a3b8" stroke-width="2.0" stroke-linecap="round" stroke-linejoin="round" marker-end="url(#aRsub)"/>
<line x1="160.0" y1="266" x2="160.0" y2="98" stroke="#94a3b8" stroke-width="2.0" stroke-linecap="round" stroke-linejoin="round" marker-end="url(#aRsub)"/>
<circle cx="220.0" cy="134.0" r="7" fill="#0f172a"/>
<text x="222.0" y="122.0" text-anchor="middle" font-size="13" fill="#0f172a" font-weight="400">(60, 48)</text>
<text x="152.0" y="204.0" text-anchor="middle" font-size="13" fill="#475569" font-weight="400">0</text>
<text x="136.0" y="118" text-anchor="middle" font-size="13" fill="#475569" font-weight="400">y ↑</text>
<text x="160.0" y="312" text-anchor="middle" font-size="17" fill="#475569" font-weight="600">数学 … 中央が原点</text>
<text x="160.0" y="336" text-anchor="middle" font-size="13" fill="#475569" font-weight="400">y は上が正</text>
<rect x="360" y="82" width="240" height="200" rx="16" fill="#dbeafe" stroke="#3b82f6" stroke-width="3.5"/>
<line x1="400" y1="82" x2="400" y2="282" stroke="#cbd5e1" stroke-width="1"/>
<line x1="440" y1="82" x2="440" y2="282" stroke="#cbd5e1" stroke-width="1"/>
<line x1="480" y1="82" x2="480" y2="282" stroke="#cbd5e1" stroke-width="1"/>
<line x1="520" y1="82" x2="520" y2="282" stroke="#cbd5e1" stroke-width="1"/>
<line x1="560" y1="82" x2="560" y2="282" stroke="#cbd5e1" stroke-width="1"/>
<line x1="360" y1="122" x2="600" y2="122" stroke="#cbd5e1" stroke-width="1"/>
<line x1="360" y1="162" x2="600" y2="162" stroke="#cbd5e1" stroke-width="1"/>
<line x1="360" y1="202" x2="600" y2="202" stroke="#cbd5e1" stroke-width="1"/>
<line x1="360" y1="242" x2="600" y2="242" stroke="#cbd5e1" stroke-width="1"/>
<line x1="384" y1="106" x2="584" y2="106" stroke="#475569" stroke-width="3.5" stroke-linecap="round" stroke-linejoin="round" marker-end="url(#aR)"/>
<line x1="384" y1="106" x2="384" y2="266" stroke="#475569" stroke-width="3.5" stroke-linecap="round" stroke-linejoin="round" marker-end="url(#aR)"/>
<circle cx="504" cy="202" r="7" fill="#1d4ed8"/>
<text x="506" y="190" text-anchor="middle" font-size="13" fill="#1d4ed8" font-weight="400">(120, 96)</text>
<text x="400" y="128" text-anchor="middle" font-size="13" fill="#1d4ed8" font-weight="400">0</text>
<text x="412" y="254" text-anchor="middle" font-size="13" fill="#1d4ed8" font-weight="400">y ↓</text>
<text x="480.0" y="312" text-anchor="middle" font-size="17" fill="#1d4ed8" font-weight="600">Web・Phaser … 左上が原点</text>
<text x="480.0" y="336" text-anchor="middle" font-size="13" fill="#1d4ed8" font-weight="400">y は下が正</text>
</svg>
